<svg width="106" height="1000" viewBox="0 0 106 1000" fill="none" xmlns="http://www.w3.org/2000/svg">
<path d="M22.1676 999.625H2.18182L2.18182 913.567H22.1676L22.1676 944.44H104L104 968.702H22.1676L22.1676 999.625ZM104 887.548H2.18182L2.18182 845.488C2.18182 837.865 3.55729 831.286 6.30824 825.751C9.02604 820.183 12.937 815.891 18.0412 812.875C23.1122 809.859 29.1278 808.35 36.0881 808.35C43.1477 808.35 49.1468 809.892 54.0852 812.974C58.9905 816.056 62.7358 820.431 65.321 826.099C67.8731 831.767 69.1491 838.478 69.1491 846.234L69.1491 872.832H49.7599V850.808C49.7599 847.096 49.2794 843.997 48.3182 841.511C47.3239 838.992 45.8324 837.086 43.8438 835.794C41.822 834.501 39.2367 833.855 36.0881 833.855C32.9394 833.855 30.3376 834.501 28.2827 835.794C26.1946 837.086 24.6368 838.992 23.6094 841.511C22.5488 844.03 22.0185 847.129 22.0185 850.808V862.939H104V887.548ZM57.4659 830.225L104 804.87V831.717L57.4659 856.575L57.4659 830.225ZM104 758.828L104 785.277L2.18182 750.924L2.18182 718.161L104 683.807V710.256L27.8352 734.169V734.965L104 758.828ZM63.929 762.358L63.929 707.074H82.6222V762.358H63.929ZM2.18182 572.19H104V593.071L45.2358 633.589V634.235H104V658.845H2.18182L2.18182 637.666L60.8466 597.595V596.75H2.18182L2.18182 572.19ZM32.7074 487.68C29.0615 488.012 26.2277 489.487 24.206 492.105C22.151 494.69 21.1236 498.386 21.1236 503.192C21.1236 506.374 21.5379 509.025 22.3665 511.146C23.1951 513.268 24.3385 514.858 25.7969 515.919C27.2221 516.98 28.8627 517.527 30.7188 517.56C32.2434 517.626 33.5857 517.328 34.7457 516.665C35.9058 515.969 36.9332 514.974 37.8281 513.682C38.6899 512.356 39.4522 510.765 40.1151 508.909C40.7779 507.053 41.358 504.965 41.8551 502.645L43.8438 493.895C44.9375 488.857 46.3958 484.416 48.2188 480.571C50.0417 476.693 52.2126 473.445 54.7315 470.827C57.2505 468.175 60.1506 466.17 63.4318 464.811C66.7131 463.452 70.392 462.756 74.4688 462.723C80.8987 462.756 86.4171 464.38 91.0241 467.595C95.6312 470.81 99.161 475.434 101.614 481.466C104.066 487.465 105.293 494.707 105.293 503.192C105.293 511.71 104.017 519.134 101.464 525.464C98.9124 531.795 95.0346 536.717 89.831 540.23C84.6274 543.743 78.0483 545.55 70.0938 545.649V522.084C73.375 521.885 76.1094 521.007 78.2969 519.449C80.4844 517.891 82.1416 515.753 83.2685 513.036C84.3954 510.285 84.9588 507.103 84.9588 503.49C84.9588 500.176 84.5114 497.358 83.6165 495.038C82.7216 492.685 81.4787 490.879 79.8878 489.619C78.2969 488.36 76.474 487.714 74.419 487.68C72.4967 487.714 70.8561 488.31 69.4972 489.47C68.1051 490.63 66.9119 492.42 65.9176 494.839C64.8902 497.226 63.9455 500.275 63.0838 503.987L60.598 514.626C58.5762 523.443 55.3116 530.386 50.804 535.457C46.2633 540.528 40.1316 543.047 32.4091 543.014C26.1117 543.047 20.5933 541.357 15.8537 537.943C11.1141 534.529 7.41856 529.806 4.76705 523.774C2.11553 517.742 0.789769 510.865 0.789769 503.142C0.789769 495.254 2.1321 488.41 4.81676 482.609C7.46827 476.776 11.197 472.252 16.0028 469.037C20.8087 465.822 26.3769 464.181 32.7074 464.115L32.7074 487.68ZM104 436.294H2.18182L2.18182 394.234C2.18182 386.611 3.67329 380.032 6.65625 374.497C9.60606 368.929 13.7325 364.637 19.0355 361.621C24.3054 358.605 30.437 357.097 37.4304 357.097C44.4569 357.097 50.6051 358.638 55.875 361.72C61.1117 364.769 65.1719 369.128 68.0554 374.795C70.9389 380.463 72.3807 387.191 72.3807 394.98V420.932H52.9915L52.9915 399.554C52.9915 395.842 52.3452 392.743 51.0526 390.257C49.7599 387.738 47.9536 385.832 45.6335 384.54C43.2803 383.247 40.5459 382.601 37.4304 382.601C34.2817 382.601 31.5639 383.247 29.277 384.54C26.9569 385.832 25.1671 387.738 23.9077 390.257C22.6482 392.776 22.0185 395.875 22.0185 399.554V411.685H104V436.294ZM2.18182 306.357H104V330.966H2.18182L2.18182 306.357ZM104 276.907H2.18182L2.18182 252.298H84.0142V209.94H104V276.907ZM104 183.2H2.18182L2.18182 112.206H22.1676L22.1676 158.591H43.0483V115.835H63.0838V158.591H84.0142V112.206H104V183.2ZM104 82.794H2.18182L2.18182 40.7344C2.18182 33.1113 3.55729 26.5322 6.30824 20.9972C9.02604 15.429 12.937 11.1368 18.0412 8.12074C23.1122 5.10464 29.1278 3.59659 36.0881 3.59659C43.1477 3.59659 49.1468 5.13779 54.0852 8.22017C58.9905 11.3026 62.7358 15.6776 65.321 21.3452C67.8731 27.0128 69.1491 33.7244 69.1491 41.4801V68.0781H49.7599L49.7599 46.054C49.7599 42.3419 49.2794 39.2429 48.3182 36.7571C47.3239 34.2382 45.8324 32.3324 43.8438 31.0398C41.822 29.7472 39.2367 29.1009 36.0881 29.1009C32.9394 29.1009 30.3376 29.7472 28.2827 31.0398C26.1946 32.3324 24.6368 34.2382 23.6094 36.7571C22.5488 39.276 22.0185 42.375 22.0185 46.054L22.0185 58.1847H104V82.794ZM57.4659 25.4716L104 0.116473V26.9631L57.4659 51.821V25.4716Z" fill="#0CA3A5" fill-opacity="0.4"/>
</svg>
