<svg width="130" height="130" viewBox="0 0 130 130" fill="none" xmlns="http://www.w3.org/2000/svg">
<path d="M110.5 0H19.5C8.73045 0 0 8.73045 0 19.5V110.5C0 121.27 8.73045 130 19.5 130H110.5C121.27 130 130 121.27 130 110.5V19.5C130 8.73045 121.27 0 110.5 0Z" fill="#F7DF1E"/>
<path d="M82.2656 93.9453C84.8047 98.2617 88.3594 101.309 94.1992 101.309C99.2773 101.309 102.578 98.7695 102.578 95.2148C102.578 91.1523 99.2773 89.6289 93.6914 87.0898L90.6445 85.8203C81.7578 82.0117 75.918 77.4414 75.918 67.5391C75.918 58.3984 82.7734 51.2891 93.6914 51.2891C101.562 51.2891 107.148 54.082 110.957 61.1914L101.562 67.2852C99.5312 63.4766 97.2461 61.9531 93.6914 61.9531C90.1367 61.9531 87.8516 64.2383 87.8516 67.2852C87.8516 70.8398 90.1367 72.3633 95.4688 74.6484L98.5156 75.918C108.926 80.4883 114.766 84.8047 114.766 95.2148C114.766 106.133 106.133 112.227 94.4531 112.227C83.0273 112.227 75.6641 106.895 72.1094 99.7852L82.2656 93.9453ZM39.1016 94.9609C41.1328 98.2617 42.6562 101.309 46.9727 101.309C51.0352 101.309 53.5742 99.7852 53.5742 93.6914V51.543H65.7617V93.1836C65.7617 105.879 58.3984 111.465 47.4805 111.465C37.5781 111.465 31.9922 106.387 29.1992 100.293L39.1016 94.9609Z" fill="black"/>
</svg>
