<svg width="105" height="724" viewBox="0 0 105 724" fill="none" xmlns="http://www.w3.org/2000/svg">
<path d="M1.68951 637.007H103.508V657.888L44.7435 698.406V699.053H103.508V723.662H1.68951L1.68951 702.483L60.3543 662.412V661.567H1.68951L1.68951 637.007ZM103.508 615.933H1.68951L1.68951 544.939H21.6753L21.6753 591.324H42.556L42.556 548.568H62.5915L62.5915 591.324H83.5219V544.939H103.508V615.933ZM52.5986 427.826C63.8012 427.826 73.297 429.98 81.0858 434.289C88.8746 438.598 94.7908 444.431 98.8344 451.789C102.878 459.114 104.9 467.334 104.9 476.448C104.9 485.596 102.861 493.832 98.7847 501.157C94.708 508.482 88.7918 514.299 81.0361 518.607C73.2473 522.883 63.7681 525.021 52.5986 525.021C41.3959 525.021 31.9002 522.883 24.1114 518.607C16.3226 514.299 10.4064 508.482 6.3628 501.157C2.31924 493.832 0.297459 485.596 0.297459 476.448C0.297459 467.334 2.31924 459.114 6.3628 451.789C10.4064 444.431 16.3226 438.598 24.1114 434.289C31.9002 429.98 41.3959 427.826 52.5986 427.826ZM52.5986 452.982C45.9698 452.982 40.3685 453.927 35.7946 455.816C31.2208 457.672 27.7572 460.357 25.404 463.87C23.0508 467.35 21.8742 471.543 21.8742 476.448C21.8742 481.32 23.0508 485.513 25.404 489.026C27.7572 492.54 31.2208 495.241 35.7946 497.13C40.3685 498.986 45.9698 499.914 52.5986 499.914C59.2274 499.914 64.8287 498.986 69.4026 497.13C73.9764 495.241 77.44 492.54 79.7932 489.026C82.1464 485.513 83.323 481.32 83.323 476.448C83.323 471.543 82.1464 467.35 79.7932 463.87C77.44 460.357 73.9764 457.672 69.4026 455.816C64.8287 453.927 59.2274 452.982 52.5986 452.982ZM38.5787 315.436V340.294C36.0266 340.626 33.7231 341.305 31.6682 342.333C29.6133 343.36 27.8566 344.719 26.3983 346.409C24.94 348.1 23.8297 350.105 23.0673 352.425C22.2719 354.712 21.8742 357.247 21.8742 360.032C21.8742 364.97 23.0839 369.229 25.5034 372.809C27.9229 376.355 31.4196 379.089 35.9935 381.012C40.5673 382.901 46.1024 383.845 52.5986 383.845C59.36 383.845 65.0276 382.884 69.6014 380.962C74.1422 379.006 77.5726 376.272 79.8926 372.759C82.1796 369.212 83.323 365.02 83.323 360.181C83.323 357.463 82.975 354.994 82.279 352.773C81.583 350.519 80.5721 348.547 79.2463 346.857C77.8874 345.133 76.2468 343.725 74.3244 342.631C72.369 341.504 70.1649 340.725 67.7122 340.294L67.8614 315.436C72.369 315.867 76.8102 317.176 81.1852 319.364C85.5602 321.518 89.5541 324.485 93.1668 328.263C96.7463 332.041 99.5967 336.648 101.718 342.084C103.839 347.487 104.9 353.684 104.9 360.678C104.9 369.892 102.878 378.145 98.8344 385.436C94.7577 392.695 88.8249 398.429 81.0361 402.638C73.2473 406.847 63.7681 408.952 52.5986 408.952C41.3959 408.952 31.9002 406.814 24.1114 402.539C16.3226 398.263 10.4064 392.479 6.3628 385.188C2.31924 377.896 0.297459 369.726 0.297459 360.678C0.297459 354.513 1.1592 348.812 2.88269 343.576C4.57303 338.339 7.05882 333.732 10.3401 329.755C13.5882 325.777 17.582 322.546 22.3216 320.06C27.0612 317.574 32.4802 316.033 38.5787 315.436ZM52.5986 199.653C63.8012 199.653 73.297 201.808 81.0858 206.117C88.8746 210.425 94.7908 216.259 98.8344 223.617C102.878 230.941 104.9 239.161 104.9 248.276C104.9 257.423 102.861 265.66 98.7847 272.984C94.708 280.309 88.7918 286.126 81.0361 290.435C73.2473 294.71 63.7681 296.848 52.5986 296.848C41.3959 296.848 31.9002 294.71 24.1114 290.435C16.3226 286.126 10.4064 280.309 6.3628 272.984C2.31924 265.66 0.297459 257.423 0.297459 248.276C0.297459 239.161 2.31924 230.941 6.3628 223.617C10.4064 216.259 16.3226 210.425 24.1114 206.117C31.9002 201.808 41.3959 199.653 52.5986 199.653ZM52.5986 224.81C45.9698 224.81 40.3685 225.754 35.7946 227.644C31.2208 229.5 27.7572 232.184 25.404 235.698C23.0508 239.178 21.8742 243.37 21.8742 248.276C21.8742 253.148 23.0508 257.341 25.404 260.854C27.7572 264.367 31.2208 267.068 35.7946 268.957C40.3685 270.814 45.9698 271.742 52.5986 271.742C59.2274 271.742 64.8287 270.814 69.4026 268.957C73.9764 267.068 77.44 264.367 79.7932 260.854C82.1464 257.341 83.323 253.148 83.323 248.276C83.323 243.37 82.1464 239.178 79.7932 235.698C77.44 232.184 73.9764 229.5 69.4026 227.644C64.8287 225.754 59.2274 224.81 52.5986 224.81ZM103.508 142.051V179.686H1.68951L1.68951 142.1C1.68951 131.726 3.72786 122.794 7.80457 115.303C11.8481 107.78 17.6815 101.98 25.3046 97.9029C32.8945 93.8262 41.976 91.7878 52.5489 91.7878C63.1549 91.7878 72.2695 93.8262 79.8926 97.9029C87.5157 101.946 93.3656 107.73 97.4423 115.254C101.486 122.777 103.508 131.71 103.508 142.051ZM82.5276 155.076V142.995C82.5276 137.294 81.5664 132.472 79.6441 128.528C77.6886 124.551 74.5233 121.551 70.1483 119.529C65.7402 117.474 59.8737 116.447 52.5489 116.447C45.2241 116.447 39.3907 117.474 35.0489 119.529C30.6739 121.584 27.5252 124.617 25.6029 128.627C23.6474 132.605 22.6696 137.51 22.6696 143.343L22.6696 155.076H82.5276ZM103.508 71.82H1.68951L1.68951 0.825657H21.6753L21.6753 47.2106H42.556V4.45491H62.5915V47.2106H83.5219V0.825657H103.508V71.82Z" fill="#0B2A3C"/>
</svg>
