<svg width="129" height="130" viewBox="0 0 129 130" fill="none" xmlns="http://www.w3.org/2000/svg">
<path d="M64.1006 0.0558905C31.5707 0.0558905 33.6279 14.3547 33.6279 14.3547V29.2125H64.5633V33.8701H21.3078C21.3078 33.8701 0.484131 31.2618 0.484131 64.8199C0.484131 98.3779 18.8704 97.0132 18.8704 97.0132H29.4861V81.359C29.4861 81.359 28.8905 62.6681 47.3546 62.6681H78.3358C78.3358 62.6681 95.6179 62.9475 95.6179 45.6585V17.289C95.6179 17.289 98.2386 0 64.2701 0L64.1006 0.0558905ZM47.0018 10.0092C48.1016 9.98098 49.1849 10.285 50.1147 10.8827C51.0446 11.4804 51.7792 12.3449 52.2256 13.3671C52.6721 14.3892 52.8103 15.523 52.6229 16.625C52.4355 17.727 51.9308 18.7478 51.1727 19.5582C50.4146 20.3686 49.4371 20.9323 48.3638 21.178C47.2905 21.4236 46.1697 21.3402 45.1431 20.9383C44.1165 20.5363 43.2301 19.8339 42.5962 18.9199C41.9623 18.0059 41.6092 16.9213 41.5817 15.8033V15.7101C41.5817 14.2105 42.1677 12.7723 43.2108 11.7119C44.2539 10.6515 45.6687 10.0558 47.1438 10.0558L47.0018 10.0092Z" fill="url(#paint0_linear_5_59)"/>
<path d="M65.2461 129.584C97.776 129.584 95.7188 115.239 95.7188 115.239V100.428H64.788V95.7702H108.176C108.176 95.7702 129 98.1362 129 64.7738C129 31.4114 110.614 32.5805 110.614 32.5805H99.8606V48.0297C99.8606 48.0297 100.456 66.7207 81.9921 66.7207H50.9972C50.9972 66.7207 33.7014 66.4552 33.7014 83.7442V112.305C33.7014 112.305 31.0807 129.594 65.0491 129.594H65.2324L65.2461 129.584ZM82.3449 119.584C81.2451 119.613 80.1618 119.309 79.232 118.711C78.3022 118.113 77.5676 117.249 77.1211 116.227C76.6746 115.204 76.5364 114.071 76.7238 112.969C76.9112 111.867 77.4159 110.846 78.174 110.035C78.9322 109.225 79.9097 108.661 80.9829 108.416C82.0562 108.17 83.177 108.253 84.2036 108.655C85.2303 109.057 86.1166 109.76 86.7505 110.674C87.3845 111.588 87.7375 112.672 87.765 113.79V113.93C87.765 115.43 87.179 116.868 86.1359 117.928C85.0928 118.989 83.6781 119.584 82.2029 119.584H82.3449Z" fill="url(#paint1_linear_5_59)"/>
<defs>
<linearGradient id="paint0_linear_5_59" x1="13.1623" y1="12.7381" x2="75.0357" y2="73.4648" gradientUnits="userSpaceOnUse">
<stop stop-color="#387EB8"/>
<stop offset="1" stop-color="#366994"/>
</linearGradient>
<linearGradient id="paint1_linear_5_59" x1="49.405" y1="52.9601" x2="119.942" y2="113.536" gradientUnits="userSpaceOnUse">
<stop stop-color="#FFE052"/>
<stop offset="1" stop-color="#FFC331"/>
</linearGradient>
</defs>
</svg>
